<svg xmlns="http://www.w3.org/2000/svg" width="16" height="16" viewBox="0 0 16 16">
  <g fill="none">
    <path fill="#C84043" d="M16,7.999 C16,3.581 12.4182239,0 8.00049997,0 C3.58477595,0 0,3.582 0,8 C0,12.418 3.58477595,16 7.99950003,16 C12.4172239,16 16,12.417 16,7.999"/>
    <path fill="#FFF" d="M9.4144116,10.828 L8.00049997,9.414 L6.5855884,10.828 C6.19431962,11.2164614 5.56294555,11.2164614 5.17167677,10.828 C4.78269328,10.4369321 4.78269328,9.80506792 5.17167677,9.414 L6.5855884,8 L5.17167677,6.586 C4.78257738,6.19458983 4.78257738,5.56241017 5.17167677,5.171 C5.56272025,4.7819922 6.19454492,4.7819922 6.5855884,5.171 L8.00049997,6.586 L9.4144116,5.171 C9.80545508,4.7819922 10.4372798,4.7819922 10.8283232,5.171 C11.2166046,5.56274728 11.2166046,6.19425272 10.8283232,6.586 L9.4144116,8 L10.8283232,9.414 C11.2167604,9.80529324 11.2167604,10.4367068 10.8283232,10.828 C10.4370544,11.2164614 9.80568038,11.2164614 9.4144116,10.828"/>
  </g>
</svg>
