<svg xmlns="http://www.w3.org/2000/svg" width="28" height="20" viewBox="0 0 28 20">
  <g fill="none" fill-rule="evenodd">
    <rect width="28" height="20" fill="#FFF"/>
    <path fill="#575757" fill-rule="nonzero" d="M26,16 L2,16 C0.902,16 0,16.9 0,18 C0,19.1 0.902,20 2,20 L26,20 C27.102,20 28,19.1 28,18 C28,16.9 27.102,16 26,16 M26,8 L2,8 C0.902,8 0,8.9 0,10 C0,11.1 0.902,12 2,12 L26,12 C27.102,12 28,11.1 28,10 C28,8.9 27.102,8 26,8 M2,4 L26,4 C27.102,4 28,3.1 28,2 C28,0.9 27.102,0 26,0 L2,0 C0.902,0 0,0.9 0,2 C0,3.1 0.902,4 2,4"/>
  </g>
</svg>
